<svg width="28" height="28" viewBox="0 0 28 28" fill="none" xmlns="http://www.w3.org/2000/svg">
<path d="M24.5 11.6673H22.1667V4.66732H23.3334V2.33398H4.66671V4.66732H5.83337V11.6673H3.50004C3.19062 11.6673 2.89388 11.7902 2.67508 12.009C2.45629 12.2278 2.33337 12.5246 2.33337 12.834V23.334H25.6667V12.834C25.6667 12.5246 25.5438 12.2278 25.325 12.009C25.1062 11.7902 24.8095 11.6673 24.5 11.6673ZM16.3334 21.0007V16.334H11.6667V21.0007H8.16671V4.66732H19.8334V21.0007H16.3334Z" fill="#1FAF38"/>
<path d="M10.5 7H12.8333V9.33333H10.5V7ZM15.1667 7H17.5V9.33333H15.1667V7ZM10.5 11.6667H12.8333V14H10.5V11.6667ZM15.1667 11.6667H17.5V14H15.1667V11.6667Z" fill="#1FAF38"/>
</svg>
