<svg width="44" height="44" viewBox="0 0 44 44" fill="none" xmlns="http://www.w3.org/2000/svg">
<path fill-rule="evenodd" clip-rule="evenodd" d="M17 21H14V23H17V21ZM17 25H14V27H17V25ZM17 29H14V31H17V29Z" fill="#136EE7"/>
<path opacity="0.3" fill-rule="evenodd" clip-rule="evenodd" d="M14.6719 15.0957C15.2929 15.0955 15.891 15.33 16.3464 15.7523C16.8017 16.1746 17.0807 16.7534 17.1272 17.3726L17.1334 17.5572V34.788H18.3642V23.0957C18.3641 22.9517 18.4146 22.8122 18.5068 22.7015C18.599 22.5909 18.7271 22.5161 18.8688 22.4902L18.9796 22.4803H20.8257C21.4467 22.4801 22.0449 22.7147 22.5002 23.1369C22.9556 23.5592 23.2345 24.138 23.2811 24.7572L23.2872 24.9419V34.788H24.518C24.8317 34.7884 25.1334 34.9085 25.3615 35.1238C25.5897 35.3392 25.7269 35.6335 25.7453 35.9467C25.7637 36.2598 25.6618 36.5682 25.4605 36.8087C25.2591 37.0493 24.9735 37.2039 24.662 37.2409L24.518 37.2495H2.36417C2.05047 37.2492 1.74875 37.1291 1.52064 36.9137C1.29254 36.6984 1.15527 36.4041 1.13688 36.0909C1.1185 35.7778 1.22039 35.4694 1.42173 35.2288C1.62307 34.9883 1.90867 34.8337 2.22017 34.7966L2.36417 34.788H3.59494V17.5572C3.59474 16.9362 3.82929 16.3381 4.25155 15.8827C4.67382 15.4274 5.2526 15.1484 5.87186 15.1019L6.05648 15.0957H14.6719Z" fill="#136EE7"/>
<path d="M27.7488 14.8652L31.9026 16.9428H37.4411M42.3642 36.6351L39.9026 28.0197L31.9026 26.1735L23.9026 28.0197L21.4411 36.6351H42.3642Z" stroke="#136EE7" stroke-width="1.23077" stroke-miterlimit="10" stroke-linecap="round" stroke-linejoin="round"/>
<path d="M30.0564 20.0192V19.4038M33.7488 20.0192V19.4038M34.9217 26.8697L31.9026 31.7115L28.8835 26.8697M37.4411 22.7885L31.9026 24.9423L26.3641 22.7885V15.4038L31.9026 13.25L37.4411 15.4038V22.7885Z" stroke="#136EE7" stroke-width="1.23077" stroke-miterlimit="10" stroke-linecap="round" stroke-linejoin="round"/>
</svg>
