<svg width="44" height="44" viewBox="0 0 44 44" fill="none" xmlns="http://www.w3.org/2000/svg">
<path d="M25.4467 11.457C25.4467 12.551 25.8813 13.6003 26.6549 14.3738C27.4285 15.1474 28.4777 15.582 29.5717 15.582C30.6658 15.582 31.715 15.1474 32.4886 14.3738C33.2621 13.6003 33.6967 12.551 33.6967 11.457C33.6967 10.363 33.2621 9.3138 32.4886 8.54022C31.715 7.76663 30.6658 7.33203 29.5717 7.33203C28.4777 7.33203 27.4285 7.76663 26.6549 8.54022C25.8813 9.3138 25.4467 10.363 25.4467 11.457ZM21.5234 23.2087C21.4864 23.2728 21.4669 23.3455 21.4669 23.4195C21.4669 23.4935 21.4864 23.5663 21.5234 23.6304C21.5692 23.7122 21.6408 23.7764 21.7272 23.8129C21.8135 23.8495 21.9095 23.8562 22.0001 23.832H37.3817C37.4389 23.8335 37.4956 23.821 37.5468 23.7954C37.5979 23.7698 37.642 23.732 37.6751 23.6854C37.698 23.6366 37.7098 23.5834 37.7098 23.5295C37.7098 23.4757 37.698 23.4225 37.6751 23.3737C37.1402 21.6608 36.0763 20.1615 34.6362 19.0911C33.196 18.0206 31.4536 17.4341 29.6593 17.4158C27.8649 17.3975 26.1109 17.9483 24.6492 18.9891C23.1874 20.0299 22.0931 21.5071 21.5234 23.2087Z" fill="#136EE7"/>
<path d="M41.03 30.2513C41.5163 30.2513 41.9826 30.0581 42.3264 29.7143C42.6702 29.3705 42.8634 28.9042 42.8634 28.418C42.8634 27.9317 42.6702 27.4654 42.3264 27.1216C41.9826 26.7778 41.5163 26.5846 41.03 26.5846H18.5534C18.3103 26.5846 18.0771 26.4881 17.9052 26.3162C17.7333 26.1442 17.6367 25.9111 17.6367 25.668V22.918C17.6367 20.7299 16.7675 18.6315 15.2204 17.0843C13.6732 15.5372 11.5748 14.668 9.38672 14.668C7.19868 14.668 5.10026 15.5372 3.55309 17.0843C2.00591 18.6315 1.13672 20.7299 1.13672 22.918V29.3346C1.13672 29.5778 1.2333 29.8109 1.4052 29.9828C1.57711 30.1547 1.81027 30.2513 2.05339 30.2513H3.88672C4.11889 30.2461 4.34404 30.3311 4.51495 30.4883C4.68585 30.6455 4.78922 30.8628 4.80339 31.0946L5.66505 42.168C5.67921 42.3998 5.78259 42.6171 5.95349 42.7743C6.12439 42.9315 6.34955 43.0165 6.58172 43.0113H12.2101C12.441 43.012 12.6637 42.9256 12.8336 42.7692C13.0036 42.6129 13.1082 42.3982 13.1267 42.168L13.9151 31.168C13.9292 30.9362 14.0326 30.7189 14.2035 30.5616C14.3744 30.4044 14.5995 30.3195 14.8317 30.3246L41.03 30.2513ZM3.90505 6.41797C3.90505 7.14024 4.04731 7.85544 4.32371 8.52273C4.60012 9.19002 5.00524 9.79633 5.51596 10.3071C6.02669 10.8178 6.633 11.2229 7.30029 11.4993C7.96758 11.7757 8.68278 11.918 9.40505 11.918C10.1273 11.918 10.8425 11.7757 11.5098 11.4993C12.1771 11.2229 12.7834 10.8178 13.2941 10.3071C13.8049 9.79633 14.21 9.19002 14.4864 8.52273C14.7628 7.85544 14.9051 7.14024 14.9051 6.41797C14.9051 4.95928 14.3256 3.56033 13.2941 2.52888C12.2627 1.49743 10.8637 0.917969 9.40505 0.917969C7.94636 0.917969 6.54741 1.49743 5.51596 2.52888C4.48451 3.56033 3.90505 4.95928 3.90505 6.41797Z" fill="#136EE7"/>
</svg>
