<svg width="25" height="25" viewBox="0 0 25 25" fill="none" xmlns="http://www.w3.org/2000/svg">
<path d="M6.5 19.5L4.5 21.5M18.5 19.5L20.5 21.5M9.5 15.5H9.509M15.491 15.5H15.5M5.5 9.5C9.5 13.5 16 13.5 19.5 9.5" stroke="#1FAF38" stroke-width="1.5" stroke-linecap="round" stroke-linejoin="round"/>
<path d="M5.77303 8.394C6.59403 4.216 7.73003 3.5 11.955 3.5H13.045C17.27 3.5 18.405 4.216 19.227 8.394L19.78 11.21C20.535 15.05 20.912 16.97 19.812 18.235C18.712 19.5 16.642 19.5 12.5 19.5C8.35903 19.5 6.28803 19.5 5.18803 18.235C4.08803 16.97 4.46503 15.05 5.22003 11.21L5.77303 8.394Z" stroke="#1FAF38" stroke-width="1.5" stroke-linecap="round" stroke-linejoin="round"/>
</svg>
