<svg width="24" height="25" viewBox="0 0 24 25" fill="none" xmlns="http://www.w3.org/2000/svg">
<path d="M17.526 6.28708L14.347 1.83008L2.658 11.1681L2.01 11.1611V11.1711H1.5V23.1711H22.5V11.1711H21.538L19.624 5.57208L17.526 6.28708ZM19.425 11.1711H9.397L16.866 8.62508L18.388 8.13808L19.425 11.1711ZM15.55 6.96108L7.84 9.58908L13.946 4.71108L15.55 6.96108ZM3.5 19.3401V15.0001C3.92218 14.8511 4.30565 14.6095 4.62231 14.293C4.93896 13.9765 5.18077 13.5932 5.33 13.1711H18.67C18.8191 13.5934 19.0609 13.9769 19.3775 14.2936C19.6942 14.6102 20.0777 14.852 20.5 15.0011V19.3411C20.0777 19.4902 19.6942 19.7319 19.3775 20.0486C19.0609 20.3653 18.8191 20.7488 18.67 21.1711H5.332C5.18218 20.7488 4.93996 20.3652 4.62302 20.0484C4.30607 19.7317 3.9224 19.4897 3.5 19.3401Z" fill="#1FAF38"/>
</svg>
