<svg width="28" height="28" viewBox="0 0 28 28" fill="none" xmlns="http://www.w3.org/2000/svg">
<mask id="mask0_290_576" style="mask-type:luminance" maskUnits="userSpaceOnUse" x="1" y="1" width="26" height="26">
<path d="M21 4.66602H7.58337C5.83337 4.66602 2.33337 5.83268 2.33337 9.33268C2.33337 12.8327 5.83337 13.9993 7.58337 13.9993H20.4167C22.1667 13.9993 25.6667 15.166 25.6667 18.666C25.6667 22.166 22.1667 23.3327 20.4167 23.3327H7.00004" stroke="white" stroke-width="2.33333" stroke-linecap="round" stroke-linejoin="round"/>
<path d="M23.3334 7.00065C23.9522 7.00065 24.5457 6.75482 24.9833 6.31723C25.4209 5.87965 25.6667 5.28616 25.6667 4.66732C25.6667 4.04848 25.4209 3.45499 24.9833 3.0174C24.5457 2.57982 23.9522 2.33398 23.3334 2.33398C22.7145 2.33398 22.121 2.57982 21.6835 3.0174C21.2459 3.45499 21 4.04848 21 4.66732C21 5.28616 21.2459 5.87965 21.6835 6.31723C22.121 6.75482 22.7145 7.00065 23.3334 7.00065ZM4.66671 25.6673C5.28555 25.6673 5.87904 25.4215 6.31662 24.9839C6.75421 24.5463 7.00004 23.9528 7.00004 23.334C7.00004 22.7151 6.75421 22.1217 6.31662 21.6841C5.87904 21.2465 5.28555 21.0007 4.66671 21.0007C4.04787 21.0007 3.45438 21.2465 3.01679 21.6841C2.57921 22.1217 2.33337 22.7151 2.33337 23.334C2.33337 23.9528 2.57921 24.5463 3.01679 24.9839C3.45438 25.4215 4.04787 25.6673 4.66671 25.6673Z" fill="#555555" stroke="white" stroke-width="2.33333" stroke-linejoin="round"/>
</mask>
<g mask="url(#mask0_290_576)">
<path d="M0 0H28V28H0V0Z" fill="#1FAF38"/>
</g>
</svg>
