<svg width="25" height="25" viewBox="0 0 25 25" fill="none" xmlns="http://www.w3.org/2000/svg">
<path opacity="0.2" d="M19 12.4895C19.0056 14.6107 17.2244 16.4457 15.1038 16.4995C14.1595 16.5258 13.2367 16.2157 12.5 15.6245C11.7635 16.2157 10.8409 16.5258 9.89689 16.4995C7.77626 16.4457 5.99439 14.6107 6.00001 12.4895C6.00228 11.6931 6.24219 10.9156 6.68902 10.2564C7.13585 9.59727 7.76926 9.08648 8.50814 8.78947C8.80716 7.97111 9.35047 7.26443 10.0645 6.76513C10.7785 6.26583 11.6287 5.99805 12.5 5.99805C13.3713 5.99805 14.2215 6.26583 14.9355 6.76513C15.6496 7.26443 16.1929 7.97111 16.4919 8.78947C17.2308 9.08648 17.8642 9.59727 18.311 10.2564C18.7578 10.9156 18.9977 11.6931 19 12.4895Z" fill="#1FAF38"/>
<path d="M20.133 8.74704C19.668 7.63695 18.8852 6.68902 17.883 6.02235C16.8807 5.35568 15.7038 5 14.5 5C13.2962 5 12.1193 5.35568 11.117 6.02235C10.1148 6.68902 9.33201 7.63695 8.86698 8.74704C7.86268 9.20597 7.01142 9.94372 6.41451 10.8725C5.8176 11.8013 5.50018 12.882 5.50002 13.986C5.49198 17.0549 8.07144 19.7061 11.1363 19.7864C12.0789 19.8088 13.0128 19.6012 13.8571 19.1815V22.3573C13.8571 22.5277 13.9249 22.6912 14.0454 22.8118C14.166 22.9323 14.3295 23 14.5 23C14.6705 23 14.834 22.9323 14.9546 22.8118C15.0751 22.6912 15.1429 22.5277 15.1429 22.3573V19.1815C15.9421 19.5781 16.822 19.7852 17.7143 19.7864H17.8605C20.9286 19.7061 23.5088 17.0549 23.5 13.986C23.4998 12.882 23.1824 11.8013 22.5855 10.8725C21.9886 9.94372 21.1373 9.20597 20.133 8.74704ZM17.8308 18.501C16.8721 18.526 15.9305 18.2445 15.1429 17.6976V14.4037L18.6448 12.6539C18.7204 12.6162 18.7877 12.5639 18.8431 12.5001C18.8984 12.4363 18.9407 12.3622 18.9674 12.2821C18.9941 12.202 19.0048 12.1174 18.9988 12.0331C18.9928 11.9489 18.9703 11.8666 18.9325 11.7911C18.8947 11.7155 18.8424 11.6482 18.7786 11.5929C18.7148 11.5375 18.6407 11.4953 18.5606 11.4686C18.4804 11.4419 18.3958 11.4312 18.3115 11.4372C18.2273 11.4432 18.145 11.4657 18.0695 11.5035L15.1429 12.9624V10.7885C15.1429 10.618 15.0751 10.4545 14.9546 10.334C14.834 10.2135 14.6705 10.1457 14.5 10.1457C14.3295 10.1457 14.166 10.2135 14.0454 10.334C13.9249 10.4545 13.8571 10.618 13.8571 10.7885V14.8906L10.9305 13.4268C10.7779 13.3505 10.6013 13.338 10.4394 13.3919C10.2776 13.4458 10.1438 13.5618 10.0675 13.7144C9.99121 13.867 9.97866 14.0436 10.0326 14.2054C10.0866 14.3672 10.2026 14.501 10.3552 14.5772L13.8571 16.327V17.6928C13.0697 18.2401 12.1279 18.5216 11.1692 18.4962C8.78662 18.4391 6.7793 16.3736 6.78573 13.9892C6.78534 13.0925 7.05399 12.2162 7.55694 11.4738C8.0599 10.7313 8.77405 10.1568 9.60706 9.82439C9.69064 9.79084 9.76623 9.7401 9.82894 9.67547C9.89165 9.61083 9.94008 9.53375 9.97108 9.44921C10.3102 8.5208 10.9265 7.71905 11.7366 7.15257C12.5467 6.58609 13.5114 6.28227 14.5 6.28227C15.4886 6.28227 16.4533 6.58609 17.2634 7.15257C18.0735 7.71905 18.6898 8.5208 19.0289 9.44921C19.0599 9.53375 19.1083 9.61083 19.1711 9.67547C19.2338 9.7401 19.3094 9.79084 19.3929 9.82439C20.2259 10.1568 20.9401 10.7313 21.4431 11.4738C21.946 12.2162 22.2147 13.0925 22.2143 13.9892C22.2207 16.3736 20.2134 18.4391 17.8308 18.501Z" fill="#1FAF38"/>
</svg>
