<svg width="88" height="88" viewBox="0 0 88 88" fill="none" xmlns="http://www.w3.org/2000/svg">
<path d="M46.0458 10.9372C44.7117 10.4857 43.266 10.4857 41.9318 10.9372L17.0865 19.3522C16.2772 19.6151 15.5625 20.1088 15.0303 20.7727C14.498 21.4365 14.1715 22.2415 14.0908 23.0885C12.8552 38.5839 15.0002 50.0422 20.0932 58.6992C25.0212 67.0775 32.9045 73.1679 43.9888 77.7072C55.0842 73.1679 62.9748 67.0775 67.9028 58.6992C72.9995 50.0459 75.1445 38.5839 73.9088 23.0885C73.8282 22.2415 73.5016 21.4365 72.9694 20.7727C72.4371 20.1088 71.7224 19.6151 70.9132 19.3522L46.0458 10.9372ZM40.1682 5.73053C42.6458 4.89056 45.331 4.88927 47.8095 5.72686L72.6768 14.1419C74.5034 14.7502 76.1121 15.8798 77.3044 17.3914C78.4968 18.903 79.2206 20.7305 79.3868 22.6485C80.6812 38.8185 78.5068 51.5272 72.6438 61.4895C66.7625 71.4812 57.3868 78.3489 44.9972 83.2292C44.3492 83.4846 43.6285 83.4846 42.9805 83.2292C30.6018 78.3489 21.2298 71.4812 15.3522 61.4895C9.49282 51.5272 7.31849 38.8149 8.60916 22.6485C8.77534 20.7305 9.49922 18.903 10.6916 17.3914C11.8839 15.8798 13.4925 14.7502 15.3192 14.1419L40.1682 5.73053Z" fill="#1FAF38"/>
<path opacity="0.5" d="M44 73.3308C62.4507 65.8508 71.1553 52.7315 69.4577 27.9851C69.267 25.1728 67.3457 22.7931 64.68 21.8655L47.0067 15.7128C46.0399 15.3762 45.0236 15.2039 44 15.2031V73.3308Z" fill="#1FAF38"/>
<path opacity="0.5" d="M43.6132 73.3308C25.1625 65.8508 16.4578 52.7315 18.1555 27.9851C18.3462 25.1728 20.2675 22.7931 22.9332 21.8655L40.6065 15.7128C41.5732 15.3762 42.5895 15.2039 43.6132 15.2031V73.3308Z" fill="#DBFFE1"/>
<g clip-path="url(#clip0_281_159)">
<path fill-rule="evenodd" clip-rule="evenodd" d="M78.0068 12.4052L76.1759 8.25391L74.3451 12.4052L70.1921 14.2361L74.3451 16.0669L76.1759 20.2204L78.0068 16.0669L82.1597 14.2361L78.0068 12.4052Z" fill="#8FD79B"/>
</g>
<g clip-path="url(#clip1_281_159)">
<path fill-rule="evenodd" clip-rule="evenodd" d="M71.6439 7.32469L72.2093 4.59044L69.809 6.0168L67.074 5.45089L68.5011 7.85172L67.935 10.5871L70.3361 9.15961L73.0711 9.72552L71.6439 7.32469Z" fill="#8FD79B"/>
</g>
<g clip-path="url(#clip2_281_159)">
<path fill-rule="evenodd" clip-rule="evenodd" d="M82.057 8.41973L82.4104 6.71082L80.9102 7.6023L79.2008 7.2486L80.0928 8.74912L79.739 10.4587L81.2396 9.56655L82.949 9.92025L82.057 8.41973Z" fill="#8FD79B"/>
</g>
<defs>
<clipPath id="clip0_281_159">
<rect width="13" height="13" fill="white" transform="translate(69.6759 7.71875)"/>
</clipPath>
<clipPath id="clip1_281_159">
<rect width="8" height="8" fill="white" transform="translate(69.1434 2) rotate(35.4804)"/>
</clipPath>
<clipPath id="clip2_281_159">
<rect width="5" height="5" fill="white" transform="translate(80.4943 5.0918) rotate(35.4804)"/>
</clipPath>
</defs>
</svg>
