<svg width="24" height="25" viewBox="0 0 24 25" fill="none" xmlns="http://www.w3.org/2000/svg">
<path d="M3.69198 4.49947V3.49947H6.40398V4.49947H3.69198ZM3.21198 21.4615H11.5V17.9995H3.89598L3.21198 21.4615ZM6.00998 9.72847L5.29598 9.04047L7.20998 7.12647L7.92397 7.81547L6.00998 9.72847ZM4.10398 16.9995H11.5V13.4795H4.80798L4.10398 16.9995ZM12 7.51947C10.8733 7.51947 9.91864 7.1278 9.13597 6.34447C8.35331 5.56114 7.96198 4.60647 7.96198 3.48047H16.038C16.038 4.60714 15.6466 5.5618 14.864 6.34447C14.0813 7.12714 13.1266 7.5188 12 7.51947ZM11.5 11.6925V8.98047H12.5V11.6915L11.5 11.6925ZM12.5 21.4625H20.77L20.085 18.0005H12.5V21.4625ZM12.5 17.0005H19.877L19.173 13.4805H12.5V17.0005ZM18.029 9.74847L16.102 7.81647L16.791 7.12747L18.742 9.03547L18.029 9.74847ZM17.596 4.49947V3.49947H20.308V4.49947H17.596Z" fill="#1FAF38"/>
</svg>
