<svg width="88" height="88" viewBox="0 0 88 88" fill="none" xmlns="http://www.w3.org/2000/svg">
<path d="M46.5923 8.40753L79.5923 41.4075C81.9023 43.7175 80.2669 47.6665 76.9999 47.6665H73.3333V69.6665C73.3333 72.5839 72.1743 75.3818 70.1114 77.4447C68.0485 79.5076 65.2506 80.6665 62.3333 80.6665H58.6666V54.9999C58.6667 52.1941 57.5947 49.4943 55.6699 47.4529C53.745 45.4115 51.1129 44.1828 48.3119 44.0182L47.6666 43.9999H40.3333C37.4159 43.9999 34.618 45.1588 32.5551 47.2217C30.4922 49.2846 29.3333 52.0825 29.3333 54.9999V80.6665H25.6666C22.7492 80.6665 19.9513 79.5076 17.8884 77.4447C15.8255 75.3818 14.6666 72.5839 14.6666 69.6665V47.6665H10.9999C7.73659 47.6665 6.09759 43.7175 8.40759 41.4075L41.4076 8.40753C42.0952 7.72014 43.0277 7.33398 43.9999 7.33398C44.9722 7.33398 45.9047 7.72014 46.5923 8.40753ZM47.6666 51.3332C48.639 51.3332 49.5717 51.7195 50.2593 52.4071C50.9469 53.0948 51.3333 54.0274 51.3333 54.9999V80.6665H36.6666V54.9999C36.6667 54.1018 36.9964 53.235 37.5932 52.5638C38.19 51.8927 39.0123 51.4639 39.9043 51.3589L40.3333 51.3332H47.6666Z" fill="#1FAF38"/>
<g clip-path="url(#clip0_283_406)">
<path fill-rule="evenodd" clip-rule="evenodd" d="M76.0067 17.4052L74.1759 13.2539L72.345 17.4052L68.1921 19.2361L72.345 21.0669L74.1759 25.2204L76.0067 21.0669L80.1597 19.2361L76.0067 17.4052Z" fill="#8FD79B"/>
</g>
<g clip-path="url(#clip1_283_406)">
<path fill-rule="evenodd" clip-rule="evenodd" d="M69.6439 12.3247L70.2092 9.59044L67.809 11.0168L65.0739 10.4509L66.5011 12.8517L65.935 15.5871L68.336 14.1596L71.0711 14.7255L69.6439 12.3247Z" fill="#8FD79B"/>
</g>
<g clip-path="url(#clip2_283_406)">
<path fill-rule="evenodd" clip-rule="evenodd" d="M80.057 13.4197L80.4104 11.7108L78.9102 12.6023L77.2008 12.2486L78.0928 13.7491L77.739 15.4587L79.2396 14.5666L80.949 14.9202L80.057 13.4197Z" fill="#8FD79B"/>
</g>
<defs>
<clipPath id="clip0_283_406">
<rect width="13" height="13" fill="white" transform="translate(67.6758 12.7188)"/>
</clipPath>
<clipPath id="clip1_283_406">
<rect width="8" height="8" fill="white" transform="translate(67.1434 7) rotate(35.4804)"/>
</clipPath>
<clipPath id="clip2_283_406">
<rect width="5" height="5" fill="white" transform="translate(78.4942 10.0918) rotate(35.4804)"/>
</clipPath>
</defs>
</svg>
