<svg width="25" height="25" viewBox="0 0 25 25" fill="none" xmlns="http://www.w3.org/2000/svg">
<path d="M11.3571 5H8.68566C7.7178 5 6.85352 5.61071 6.53209 6.52143L2.32495 18.4C2.25352 18.6071 2.21423 18.8286 2.21423 19.05C2.21423 20.125 3.08923 21 4.16423 21H11.3571V18.7143C11.3571 18.0821 11.8678 17.5714 12.4999 17.5714C13.1321 17.5714 13.6428 18.0821 13.6428 18.7143V21H20.8357C21.9142 21 22.7857 20.125 22.7857 19.05C22.7857 18.8286 22.7464 18.6071 22.6749 18.4L18.4678 6.52143C18.1428 5.61071 17.2821 5 16.3142 5H13.6428V7.28571C13.6428 7.91786 13.1321 8.42857 12.4999 8.42857C11.8678 8.42857 11.3571 7.91786 11.3571 7.28571V5ZM13.6428 11.8571V14.1429C13.6428 14.775 13.1321 15.2857 12.4999 15.2857C11.8678 15.2857 11.3571 14.775 11.3571 14.1429V11.8571C11.3571 11.225 11.8678 10.7143 12.4999 10.7143C13.1321 10.7143 13.6428 11.225 13.6428 11.8571Z" fill="#1FAF38"/>
</svg>
