<svg width="68" height="63" viewBox="0 0 68 63" fill="none" xmlns="http://www.w3.org/2000/svg">
<g clip-path="url(#clip0_281_244)">
<path d="M34.1571 0.396484L67.608 13.7769V18.237H63.1479C63.1479 18.841 62.9098 19.3636 62.4336 19.805C61.9574 20.2464 61.3941 20.467 60.7436 20.467H7.57059C6.92015 20.467 6.35683 20.2464 5.88062 19.805C5.40441 19.3636 5.1663 18.841 5.1663 18.237H0.706177V13.7769L34.1571 0.396484ZM9.62642 22.6971H18.5467V49.4578H23.0068V22.6971H31.927V49.4578H36.3872V22.6971H45.3074V49.4578H49.7675V22.6971H58.6878V49.4578H60.7436C61.3941 49.4578 61.9574 49.6785 62.4336 50.1199C62.9098 50.5613 63.1479 51.0839 63.1479 51.6879V53.918H5.1663V51.6879C5.1663 51.0839 5.40441 50.5613 5.88062 50.1199C6.35683 49.6785 6.92015 49.4578 7.57059 49.4578H9.62642V22.6971ZM65.2037 56.148C65.8542 56.148 66.4175 56.3687 66.8937 56.8101C67.3699 57.2514 67.608 57.7741 67.608 58.3781V62.8382H0.706177V58.3781C0.706177 57.7741 0.944282 57.2514 1.42049 56.8101C1.8967 56.3687 2.46003 56.148 3.11046 56.148H65.2037Z" fill="#1FAF38"/>
</g>
<defs>
<clipPath id="clip0_281_244">
<rect width="66.9019" height="62.4417" fill="white" transform="translate(0.706177 0.396484)"/>
</clipPath>
</defs>
</svg>
