<svg width="44" height="44" viewBox="0 0 44 44" fill="none" xmlns="http://www.w3.org/2000/svg">
<path d="M30.1861 19.845C31.1094 18.9217 31.1094 17.4376 31.1094 14.4661C31.1094 11.4947 31.1094 10.0106 30.1861 9.08732M30.1861 19.845C29.2629 20.7682 27.7787 20.7682 24.8073 20.7682H18.5052C15.5338 20.7682 14.0496 20.7682 13.1264 19.845M30.1861 9.08732C29.2629 8.16406 27.7787 8.16406 24.8073 8.16406H18.5052C15.5338 8.16406 14.0496 8.16406 13.1264 9.08732M13.1264 9.08732C12.2031 10.0106 12.2031 11.4947 12.2031 14.4661C12.2031 17.4376 12.2031 18.9217 13.1264 19.845" stroke="#136EE7" stroke-width="2.36328"/>
<path opacity="0.5" d="M23.2317 14.4661C23.2317 14.884 23.0657 15.2847 22.7703 15.5802C22.4748 15.8757 22.0741 16.0417 21.6562 16.0417C21.2384 16.0417 20.8376 15.8757 20.5421 15.5802C20.2467 15.2847 20.0807 14.884 20.0807 14.4661C20.0807 14.0483 20.2467 13.6476 20.5421 13.3521C20.8376 13.0566 21.2384 12.8906 21.6562 12.8906C22.0741 12.8906 22.4748 13.0566 22.7703 13.3521C23.0657 13.6476 23.2317 14.0483 23.2317 14.4661Z" stroke="#136EE7" stroke-width="2.36328"/>
<path opacity="0.5" d="M31.1094 12.8906C29.8559 12.8906 28.6536 12.3926 27.7672 11.5062C26.8808 10.6198 26.3829 9.41762 26.3829 8.16406M31.1094 16.0417C29.8559 16.0417 28.6536 16.5396 27.7672 17.426C26.8808 18.3124 26.3829 19.5147 26.3829 20.7682M12.2032 12.8906C13.4567 12.8906 14.6589 12.3926 15.5454 11.5062C16.4318 10.6198 16.9297 9.41762 16.9297 8.16406M12.2032 16.0417C13.4567 16.0417 14.6589 16.5396 15.5454 17.426C16.4318 18.3124 16.9297 19.5147 16.9297 20.7682M9.05212 37.1347H12.6128C14.2041 37.1347 15.8158 37.3017 17.3646 37.62C20.1298 38.1863 22.9745 38.2493 25.7621 37.8059C27.1296 37.5853 28.472 37.2466 29.6883 36.6605C30.7849 36.1296 32.1288 35.3843 33.0315 34.5477C33.9327 33.7127 34.8718 32.3467 35.5366 31.2785C36.1101 30.3616 35.8328 29.2382 34.9285 28.556C34.42 28.1871 33.8079 27.9884 33.1796 27.9884C32.5514 27.9884 31.9393 28.1871 31.4308 28.556L28.5839 30.7066C27.481 31.5416 26.2757 32.3089 24.8404 32.5374C24.6671 32.5647 24.4859 32.5894 24.2969 32.6114M24.2969 32.6114L24.1236 32.6303M24.2969 32.6114C24.549 32.5431 24.7802 32.4132 24.9696 32.2333C25.2074 32.0282 25.4016 31.7774 25.5407 31.4958C25.6799 31.2143 25.7611 30.9077 25.7796 30.5942C25.7981 30.2807 25.7535 29.9666 25.6485 29.6707C25.5435 29.3747 25.3801 29.1028 25.1681 28.8711C24.9628 28.6432 24.7237 28.4482 24.4591 28.2929C20.0524 25.6634 13.1942 27.6659 9.05212 30.6042M24.2969 32.6114C24.24 32.6241 24.1818 32.6305 24.1236 32.6303M24.1236 32.6303C23.1734 32.7256 22.2162 32.7277 21.2656 32.6366" stroke="#136EE7" stroke-width="2.36328" stroke-linecap="round"/>
</svg>
