<svg width="28" height="28" viewBox="0 0 28 28" fill="none" xmlns="http://www.w3.org/2000/svg">
<path d="M22.1667 19.8327H24.5C25.2 19.8327 25.6667 19.366 25.6667 18.666V15.166C25.6667 14.116 24.85 13.1827 23.9167 12.9493C21.8167 12.366 18.6667 11.666 18.6667 11.666C18.6667 11.666 17.15 10.0327 16.1 8.98268C15.5167 8.51602 14.8167 8.16602 14 8.16602H5.83337C5.13337 8.16602 4.55004 8.63268 4.20004 9.21602L2.56671 12.5993C2.41222 13.0499 2.33337 13.523 2.33337 13.9993V18.666C2.33337 19.366 2.80004 19.8327 3.50004 19.8327H5.83337" stroke="#1FAF38" stroke-width="2.33333" stroke-linecap="round" stroke-linejoin="round"/>
<path d="M8.16671 22.1667C9.45537 22.1667 10.5 21.122 10.5 19.8333C10.5 18.5447 9.45537 17.5 8.16671 17.5C6.87804 17.5 5.83337 18.5447 5.83337 19.8333C5.83337 21.122 6.87804 22.1667 8.16671 22.1667Z" stroke="#1FAF38" stroke-width="2.33333" stroke-linecap="round" stroke-linejoin="round"/>
<path d="M10.5 19.834H17.5" stroke="#1FAF38" stroke-width="2.33333" stroke-linecap="round" stroke-linejoin="round"/>
<path d="M19.8334 22.1667C21.1221 22.1667 22.1667 21.122 22.1667 19.8333C22.1667 18.5447 21.1221 17.5 19.8334 17.5C18.5447 17.5 17.5001 18.5447 17.5001 19.8333C17.5001 21.122 18.5447 22.1667 19.8334 22.1667Z" stroke="#1FAF38" stroke-width="2.33333" stroke-linecap="round" stroke-linejoin="round"/>
</svg>
